<svg width="50" height="50" viewBox="0 0 50 50" fill="none" xmlns="http://www.w3.org/2000/svg">
<path fill-rule="evenodd" clip-rule="evenodd" d="M31.0028 24.9395C31.0028 25.3539 30.8382 25.7513 30.5451 26.0443C30.2521 26.3374 29.8547 26.502 29.4403 26.502H11.3372L18.0465 33.2082C18.1918 33.3535 18.3071 33.526 18.3857 33.7158C18.4643 33.9056 18.5048 34.109 18.5048 34.3145C18.5048 34.5199 18.4643 34.7234 18.3857 34.9132C18.3071 35.103 18.1918 35.2754 18.0465 35.4207C17.9013 35.566 17.7288 35.6812 17.539 35.7599C17.3492 35.8385 17.1457 35.8789 16.9403 35.8789C16.7348 35.8789 16.5314 35.8385 16.3416 35.7599C16.1518 35.6812 15.9793 35.566 15.834 35.4207L6.45904 26.0457C6.31353 25.9006 6.19809 25.7282 6.11932 25.5383C6.04055 25.3485 6 25.145 6 24.9395C6 24.734 6.04055 24.5304 6.11932 24.3406C6.19809 24.1508 6.31353 23.9784 6.45904 23.8332L15.834 14.4582C16.1274 14.1648 16.5254 14 16.9403 14C17.3552 14 17.7531 14.1648 18.0465 14.4582C18.3399 14.7516 18.5048 15.1496 18.5048 15.5645C18.5048 15.9794 18.3399 16.3773 18.0465 16.6707L11.3372 23.377H29.4403C29.8547 23.377 30.2521 23.5416 30.5451 23.8346C30.8382 24.1276 31.0028 24.5251 31.0028 24.9395Z" fill="black" fill-opacity="0.2"/>
</svg>
