<svg width="40" height="30" viewBox="0 0 40 30" fill="none" xmlns="http://www.w3.org/2000/svg">
<path d="M37.5 24.8684C37.5 25.5228 37.2366 26.1503 36.7678 26.6129C36.2989 27.0756 35.663 27.3355 35 27.3355H5C4.33696 27.3355 3.70107 27.0756 3.23223 26.6129C2.76339 26.1503 2.5 25.5228 2.5 24.8684V10.0658C2.5 9.41149 2.76339 8.78397 3.23223 8.3213C3.70107 7.85863 4.33696 7.5987 5 7.5987H7.93C9.91809 7.59763 11.8244 6.81763 13.23 5.43012L15.305 3.38735C15.7725 2.92586 16.4062 2.66594 17.0675 2.66449H22.9275C23.5905 2.66463 24.2263 2.92465 24.695 3.38735L26.765 5.43012C27.4616 6.11774 28.2886 6.66317 29.1989 7.03527C30.1091 7.40736 31.0847 7.59882 32.07 7.5987H35C35.663 7.5987 36.2989 7.85863 36.7678 8.3213C37.2366 8.78397 37.5 9.41149 37.5 10.0658V24.8684ZM5 5.1316C3.67392 5.1316 2.40215 5.65145 1.46447 6.57679C0.526784 7.50214 0 8.75717 0 10.0658L0 24.8684C0 26.1771 0.526784 27.4321 1.46447 28.3575C2.40215 29.2828 3.67392 29.8027 5 29.8027H35C36.3261 29.8027 37.5979 29.2828 38.5355 28.3575C39.4732 27.4321 40 26.1771 40 24.8684V10.0658C40 8.75717 39.4732 7.50214 38.5355 6.57679C37.5979 5.65145 36.3261 5.1316 35 5.1316H32.07C30.744 5.13132 29.4725 4.61128 28.535 3.68587L26.465 1.64311C25.5275 0.717703 24.256 0.197667 22.93 0.197388H17.07C15.744 0.197667 14.4725 0.717703 13.535 1.64311L11.465 3.68587C10.5275 4.61128 9.25597 5.13132 7.93 5.1316H5Z" fill="black" fill-opacity="0.2"/>
<path d="M20 22.4013C18.3424 22.4013 16.7527 21.7515 15.5806 20.5948C14.4085 19.4382 13.75 17.8694 13.75 16.2336C13.75 14.5978 14.4085 13.029 15.5806 11.8723C16.7527 10.7156 18.3424 10.0658 20 10.0658C21.6576 10.0658 23.2473 10.7156 24.4194 11.8723C25.5915 13.029 26.25 14.5978 26.25 16.2336C26.25 17.8694 25.5915 19.4382 24.4194 20.5948C23.2473 21.7515 21.6576 22.4013 20 22.4013ZM20 24.8684C22.3206 24.8684 24.5462 23.9587 26.1872 22.3393C27.8281 20.72 28.75 18.5237 28.75 16.2336C28.75 13.9435 27.8281 11.7471 26.1872 10.1278C24.5462 8.50844 22.3206 7.59869 20 7.59869C17.6794 7.59869 15.4538 8.50844 13.8128 10.1278C12.1719 11.7471 11.25 13.9435 11.25 16.2336C11.25 18.5237 12.1719 20.72 13.8128 22.3393C15.4538 23.9587 17.6794 24.8684 20 24.8684ZM7.5 11.2994C7.5 11.6265 7.3683 11.9403 7.13388 12.1716C6.89946 12.4029 6.58152 12.5329 6.25 12.5329C5.91848 12.5329 5.60054 12.4029 5.36612 12.1716C5.1317 11.9403 5 11.6265 5 11.2994C5 10.9722 5.1317 10.6584 5.36612 10.4271C5.60054 10.1958 5.91848 10.0658 6.25 10.0658C6.58152 10.0658 6.89946 10.1958 7.13388 10.4271C7.3683 10.6584 7.5 10.9722 7.5 11.2994Z" fill="black" fill-opacity="0.2"/>
</svg>
