<svg width="24" height="26" viewBox="0 0 24 26" fill="none" xmlns="http://www.w3.org/2000/svg">
<rect x="2" width="20" height="20" fill="#D9D9D9"/>
<g filter="url(#filter0_d_134_14)">
<path fill-rule="evenodd" clip-rule="evenodd" d="M19.3173 2.68252C19.3755 2.74058 19.4217 2.80955 19.4532 2.88548C19.4847 2.96141 19.5009 3.04281 19.5009 3.12502C19.5009 3.20723 19.4847 3.28863 19.4532 3.36456C19.4217 3.44049 19.3755 3.50946 19.3173 3.56752L5.56731 17.3175C5.44995 17.4349 5.29078 17.5008 5.12481 17.5008C4.95884 17.5008 4.79967 17.4349 4.68231 17.3175C4.56495 17.2002 4.49902 17.041 4.49902 16.875C4.49902 16.709 4.56495 16.5499 4.68231 16.4325L18.4323 2.68252C18.4904 2.62431 18.5593 2.57814 18.6353 2.54663C18.7112 2.51512 18.7926 2.4989 18.8748 2.4989C18.957 2.4989 19.0384 2.51512 19.1144 2.54663C19.1903 2.57814 19.2593 2.62431 19.3173 2.68252V2.68252Z" fill="white"/>
<path fill-rule="evenodd" clip-rule="evenodd" d="M4.68264 2.68252C4.62444 2.74058 4.57826 2.80955 4.54675 2.88548C4.51524 2.96141 4.49902 3.04281 4.49902 3.12502C4.49902 3.20723 4.51524 3.28863 4.54675 3.36456C4.57826 3.44049 4.62444 3.50946 4.68264 3.56752L18.4326 17.3175C18.55 17.4349 18.7092 17.5008 18.8751 17.5008C19.0411 17.5008 19.2003 17.4349 19.3176 17.3175C19.435 17.2002 19.5009 17.041 19.5009 16.875C19.5009 16.709 19.435 16.5499 19.3176 16.4325L5.56764 2.68252C5.50958 2.62431 5.44061 2.57814 5.36468 2.54663C5.28875 2.51512 5.20735 2.4989 5.12514 2.4989C5.04293 2.4989 4.96153 2.51512 4.8856 2.54663C4.80967 2.57814 4.7407 2.62431 4.68264 2.68252V2.68252Z" fill="white"/>
</g>
<defs>
<filter id="filter0_d_134_14" x="-2" y="0" width="28" height="28" filterUnits="userSpaceOnUse" color-interpolation-filters="sRGB">
<feFlood flood-opacity="0" result="BackgroundImageFix"/>
<feColorMatrix in="SourceAlpha" type="matrix" values="0 0 0 0 0 0 0 0 0 0 0 0 0 0 0 0 0 0 127 0" result="hardAlpha"/>
<feOffset dy="4"/>
<feGaussianBlur stdDeviation="2"/>
<feComposite in2="hardAlpha" operator="out"/>
<feColorMatrix type="matrix" values="0 0 0 0 0 0 0 0 0 0 0 0 0 0 0 0 0 0 0.25 0"/>
<feBlend mode="normal" in2="BackgroundImageFix" result="effect1_dropShadow_134_14"/>
<feBlend mode="normal" in="SourceGraphic" in2="effect1_dropShadow_134_14" result="shape"/>
</filter>
</defs>
</svg>
