<svg width="40" height="40" viewBox="0 0 40 40" fill="none" xmlns="http://www.w3.org/2000/svg">
<path d="M11.255 22.5C12.2496 22.5 13.2034 22.1049 13.9067 21.4017C14.6099 20.6984 15.005 19.7446 15.005 18.75C15.005 17.7554 14.6099 16.8016 13.9067 16.0983C13.2034 15.3951 12.2496 15 11.255 15C10.2604 15 9.30662 15.3951 8.60335 16.0983C7.90009 16.8016 7.505 17.7554 7.505 18.75C7.505 19.7446 7.90009 20.6984 8.60335 21.4017C9.30662 22.1049 10.2604 22.5 11.255 22.5V22.5Z" fill="black" fill-opacity="0.2"/>
<path d="M35.005 32.5C35.005 33.8261 34.4782 35.0979 33.5405 36.0355C32.6029 36.9732 31.3311 37.5 30.005 37.5H5.005C3.67892 37.5 2.40715 36.9732 1.46947 36.0355C0.531789 35.0979 0.00500488 33.8261 0.00500488 32.5V12.5C0.00500422 11.1748 0.531102 9.90377 1.4677 8.96623C2.4043 8.02869 3.67479 7.50133 5 7.5C5 6.17392 5.52679 4.90215 6.46447 3.96447C7.40215 3.02678 8.67392 2.5 10 2.5H35C36.3261 2.5 37.5979 3.02678 38.5355 3.96447C39.4732 4.90215 40 6.17392 40 7.5V27.5C40 28.8252 39.4739 30.0962 38.5373 31.0338C37.6007 31.9713 36.3302 32.4987 35.005 32.5ZM35 5H10C9.33696 5 8.70108 5.26339 8.23224 5.73223C7.7634 6.20107 7.5 6.83696 7.5 7.5H30.005C31.3311 7.5 32.6029 8.02678 33.5405 8.96447C34.4782 9.90215 35.005 11.1739 35.005 12.5V30C35.6672 29.9987 36.3018 29.7347 36.7695 29.266C37.2373 28.7973 37.5 28.1622 37.5 27.5V7.5C37.5 6.83696 37.2366 6.20107 36.7678 5.73223C36.2989 5.26339 35.663 5 35 5V5ZM5.005 10C4.34196 10 3.70608 10.2634 3.23724 10.7322C2.7684 11.2011 2.505 11.837 2.505 12.5V32.5L9.12 26.615C9.32434 26.4114 9.59279 26.2848 9.87985 26.2565C10.1669 26.2283 10.4549 26.3001 10.695 26.46L17.345 30.8925L26.62 21.6175C26.8054 21.4319 27.0444 21.3094 27.3033 21.2672C27.5622 21.225 27.8278 21.2654 28.0625 21.3825L32.505 26.25V12.5C32.505 11.837 32.2416 11.2011 31.7728 10.7322C31.3039 10.2634 30.668 10 30.005 10H5.005V10Z" fill="black" fill-opacity="0.2"/>
</svg>
