<svg width="100" height="100" viewBox="0 0 100 100" xmlns="http://www.w3.org/2000/svg">
<g clip-path="url(#clip0_125_12)">
<path d="M75.9125 0.9125C76.2028 0.62148 76.5476 0.390587 76.9273 0.233047C77.307 0.0755064 77.714 -0.00558615 78.125 -0.00558615C78.5361 -0.00558615 78.9431 0.0755064 79.3227 0.233047C79.7024 0.390587 80.0472 0.62148 80.3375 0.9125L99.0875 19.6625C99.3785 19.9528 99.6094 20.2976 99.767 20.6773C99.9245 21.0569 100.006 21.464 100.006 21.875C100.006 22.286 99.9245 22.6931 99.767 23.0727C99.6094 23.4524 99.3785 23.7972 99.0875 24.0875L36.5875 86.5875C36.2876 86.8853 35.9304 87.1192 35.5375 87.275L4.28751 99.775C3.71961 100.002 3.09748 100.058 2.49826 99.935C1.89903 99.8121 1.34905 99.516 0.916513 99.0835C0.483973 98.651 0.187888 98.101 0.0649667 97.5018C-0.0579549 96.9025 -0.00230801 96.2804 0.225009 95.7125L12.725 64.4625C12.8808 64.0696 13.1147 63.7124 13.4125 63.4125L75.9125 0.9125V0.9125ZM70.0438 15.625L84.375 29.9563L92.4563 21.875L78.125 7.54375L70.0438 15.625ZM79.9563 34.375L65.625 20.0438L25 60.6687V62.5H28.125C28.9538 62.5 29.7487 62.8292 30.3347 63.4153C30.9208 64.0013 31.25 64.7962 31.25 65.625V68.75H34.375C35.2038 68.75 35.9987 69.0792 36.5847 69.6653C37.1708 70.2513 37.5 71.0462 37.5 71.875V75H39.3313L79.9563 34.375V34.375ZM18.95 66.7187L18.2875 67.3812L8.73751 91.2625L32.6188 81.7125L33.2813 81.05C32.6851 80.8273 32.1712 80.4278 31.8082 79.9051C31.4452 79.3824 31.2505 78.7614 31.25 78.125V75H28.125C27.2962 75 26.5014 74.6708 25.9153 74.0847C25.3292 73.4987 25 72.7038 25 71.875V68.75H21.875C21.2386 68.7495 20.6176 68.5548 20.0949 68.1918C19.5722 67.8288 19.1727 67.3149 18.95 66.7187V66.7187Z"/>
</g>
<defs>
<clipPath id="clip0_125_12">
<rect width="100" height="100"/>
</clipPath>
</defs>
</svg>
