<svg width="26" height="25" viewBox="0 0 26 25" fill="none" xmlns="http://www.w3.org/2000/svg">
<g clip-path="url(#clip0_1_572)">
<path d="M19.3292 16.1625C20.8421 14.098 21.5198 11.5383 21.2265 8.99555C20.9333 6.45283 19.6908 4.1146 17.7476 2.44864C15.8044 0.782693 13.3038 -0.088115 10.7461 0.0104368C8.18844 0.108989 5.76228 1.16963 3.95304 2.98017C2.14379 4.79071 1.08489 7.21762 0.988164 9.77537C0.891442 12.3331 1.76404 14.8331 3.43138 16.7751C5.09872 18.7171 7.43784 19.9579 9.98077 20.2494C12.5237 20.5408 15.0829 19.8613 17.1464 18.3469H17.1448C17.1917 18.4094 17.2417 18.4688 17.2979 18.5266L23.3136 24.5422C23.6065 24.8354 24.004 25.0002 24.4185 25.0003C24.833 25.0005 25.2305 24.836 25.5237 24.543C25.8169 24.25 25.9817 23.8525 25.9818 23.4381C25.982 23.0236 25.8175 22.626 25.5245 22.3328L19.5089 16.3172C19.453 16.2606 19.3929 16.2084 19.3292 16.1609V16.1625ZM19.7323 10.1563C19.7323 11.2848 19.51 12.4023 19.0781 13.4449C18.6463 14.4876 18.0133 15.4349 17.2153 16.233C16.4172 17.031 15.4699 17.664 14.4272 18.0958C13.3846 18.5277 12.2671 18.75 11.1386 18.75C10.01 18.75 8.89251 18.5277 7.84987 18.0958C6.80723 17.664 5.85986 17.031 5.06186 16.233C4.26385 15.4349 3.63084 14.4876 3.19897 13.4449C2.76709 12.4023 2.54481 11.2848 2.54481 10.1563C2.54481 7.87705 3.45022 5.6912 5.06186 4.07956C6.6735 2.46791 8.85935 1.5625 11.1386 1.5625C13.4178 1.5625 15.6036 2.46791 17.2153 4.07956C18.8269 5.6912 19.7323 7.87705 19.7323 10.1563Z" fill="black" fill-opacity="0.2"/>
</g>
<defs>
<clipPath id="clip0_1_572">
<rect width="25" height="25" fill="white" transform="translate(0.982361)"/>
</clipPath>
</defs>
</svg>
