<svg width="25" height="25" viewBox="0 0 25 25" fill="none" xmlns="http://www.w3.org/2000/svg">
<g clip-path="url(#clip0_1_481)">
<path d="M24.7719 0.228115C24.88 0.336446 24.954 0.474168 24.9845 0.624173C25.0151 0.774178 25.0009 0.929855 24.9437 1.07186L15.8516 23.8016C15.7714 24.0017 15.6376 24.1759 15.4649 24.3049C15.2921 24.434 15.0872 24.5128 14.8725 24.5329C14.6578 24.5529 14.4417 24.5133 14.2481 24.4185C14.0545 24.3236 13.8908 24.1772 13.775 23.9953L8.80938 16.1906L1.00469 11.225C0.822372 11.1093 0.675549 10.9456 0.580422 10.7518C0.485294 10.5579 0.445559 10.3416 0.465602 10.1266C0.485644 9.91166 0.564685 9.70641 0.694002 9.53352C0.823319 9.36063 0.997885 9.22682 1.19844 9.14687L23.9281 0.0578024C24.0701 0.000634027 24.2258 -0.013553 24.3758 0.0170035C24.5258 0.04756 24.6635 0.121514 24.7719 0.229677V0.228115ZM10.3688 15.7344L14.6828 22.5125L22.0781 4.02499L10.3688 15.7344ZM20.9734 2.9203L2.48594 10.3156L9.26562 14.6281L20.975 2.9203H20.9734Z" fill="black" fill-opacity="0.2"/>
</g>
<defs>
<clipPath id="clip0_1_481">
<rect width="25" height="25" fill="white"/>
</clipPath>
</defs>
</svg>
