<svg width="40" height="40" viewBox="0 0 40 40" fill="none" xmlns="http://www.w3.org/2000/svg">
<g clip-path="url(#clip0_24_454)">
<path d="M20 37.5C15.3587 37.5 10.9075 35.6563 7.62563 32.3744C4.34374 29.0925 2.5 24.6413 2.5 20C2.5 15.3587 4.34374 10.9075 7.62563 7.62563C10.9075 4.34374 15.3587 2.5 20 2.5C24.6413 2.5 29.0925 4.34374 32.3744 7.62563C35.6563 10.9075 37.5 15.3587 37.5 20C37.5 24.6413 35.6563 29.0925 32.3744 32.3744C29.0925 35.6563 24.6413 37.5 20 37.5ZM20 40C25.3043 40 30.3914 37.8929 34.1421 34.1421C37.8929 30.3914 40 25.3043 40 20C40 14.6957 37.8929 9.60859 34.1421 5.85786C30.3914 2.10714 25.3043 0 20 0C14.6957 0 9.60859 2.10714 5.85786 5.85786C2.10714 9.60859 0 14.6957 0 20C0 25.3043 2.10714 30.3914 5.85786 34.1421C9.60859 37.8929 14.6957 40 20 40Z" fill="black" fill-opacity="0.2"/>
<path d="M11.6148 11.615C11.7309 11.4986 11.8688 11.4063 12.0207 11.3433C12.1726 11.2802 12.3354 11.2478 12.4998 11.2478C12.6642 11.2478 12.827 11.2802 12.9789 11.3433C13.1307 11.4063 13.2687 11.4986 13.3848 11.615L19.9998 18.2325L26.6148 11.615C26.731 11.4988 26.869 11.4066 27.0208 11.3437C27.1727 11.2808 27.3354 11.2485 27.4998 11.2485C27.6642 11.2485 27.8269 11.2808 27.9788 11.3437C28.1306 11.4066 28.2686 11.4988 28.3848 11.615C28.501 11.7313 28.5932 11.8692 28.6561 12.0211C28.719 12.1729 28.7514 12.3357 28.7514 12.5C28.7514 12.6644 28.719 12.8271 28.6561 12.979C28.5932 13.1308 28.501 13.2688 28.3848 13.385L21.7673 20L28.3848 26.615C28.501 26.7313 28.5932 26.8692 28.6561 27.0211C28.719 27.1729 28.7514 27.3357 28.7514 27.5C28.7514 27.6644 28.719 27.8271 28.6561 27.979C28.5932 28.1308 28.501 28.2688 28.3848 28.385C28.2686 28.5013 28.1306 28.5934 27.9788 28.6563C27.8269 28.7192 27.6642 28.7516 27.4998 28.7516C27.3354 28.7516 27.1727 28.7192 27.0208 28.6563C26.869 28.5934 26.731 28.5013 26.6148 28.385L19.9998 21.7675L13.3848 28.385C13.2686 28.5013 13.1306 28.5934 12.9788 28.6563C12.8269 28.7192 12.6642 28.7516 12.4998 28.7516C12.3354 28.7516 12.1727 28.7192 12.0208 28.6563C11.869 28.5934 11.731 28.5013 11.6148 28.385C11.4986 28.2688 11.4064 28.1308 11.3435 27.979C11.2806 27.8271 11.2482 27.6644 11.2482 27.5C11.2482 27.3357 11.2806 27.1729 11.3435 27.0211C11.4064 26.8692 11.4986 26.7313 11.6148 26.615L18.2323 20L11.6148 13.385C11.4984 13.2689 11.406 13.131 11.343 12.9791C11.28 12.8273 11.2476 12.6645 11.2476 12.5C11.2476 12.3356 11.28 12.1728 11.343 12.021C11.406 11.8691 11.4984 11.7312 11.6148 11.615Z" fill="black" fill-opacity="0.2"/>
</g>
<defs>
<clipPath id="clip0_24_454">
<rect width="40" height="40" fill="white"/>
</clipPath>
</defs>
</svg>
