<svg width="40" height="40" viewBox="0 0 40 40" fill="none" xmlns="http://www.w3.org/2000/svg">
<g clip-path="url(#clip0_22_24)">
<path d="M14.3925 2.67744C14.5334 2.7618 14.6562 2.87307 14.7541 3.00492C14.8519 3.13677 14.9228 3.2866 14.9628 3.44586C15.0027 3.60512 15.0109 3.77069 14.9868 3.93311C14.9627 4.09552 14.9069 4.25161 14.8225 4.39244L8.4575 14.9999H31.5425L25.175 4.39244C25.0046 4.108 24.9542 3.76751 25.0348 3.44589C25.1155 3.12426 25.3206 2.84784 25.605 2.67744C25.8894 2.50704 26.2299 2.45661 26.5516 2.53725C26.8732 2.6179 27.1496 2.823 27.32 3.10744L34.4575 14.9999H38.75C39.0815 14.9999 39.3995 15.1316 39.6339 15.3661C39.8683 15.6005 40 15.9184 40 16.2499V18.7499C40 19.0815 39.8683 19.3994 39.6339 19.6338C39.3995 19.8682 39.0815 19.9999 38.75 19.9999H1.25C0.918479 19.9999 0.600537 19.8682 0.366117 19.6338C0.131696 19.3994 0 19.0815 0 18.7499V16.2499C0 15.9184 0.131696 15.6005 0.366117 15.3661C0.600537 15.1316 0.918479 14.9999 1.25 14.9999H5.5425L12.675 3.10744C12.7594 2.96658 12.8706 2.84371 13.0025 2.74586C13.1343 2.64801 13.2842 2.57709 13.4434 2.53716C13.6027 2.49723 13.7682 2.48907 13.9307 2.51314C14.0931 2.53721 14.2492 2.59304 14.39 2.67744H14.3925ZM8.485 37.4999L4.785 22.4999H2.36L6.1725 38.5649C6.27123 38.9739 6.50465 39.3378 6.83521 39.5981C7.16577 39.8584 7.57427 39.9999 7.995 39.9999H32.01C32.4312 40.0005 32.8402 39.8592 33.1713 39.5989C33.5024 39.3385 33.7362 38.9743 33.835 38.5649L37.64 22.4999H35.21L31.5125 37.4999H8.4875H8.485Z" fill="white"/>
</g>
<defs>
<clipPath id="clip0_22_24">
<rect width="40" height="40" fill="white"/>
</clipPath>
</defs>
</svg>
