<svg width="40" height="40" viewBox="0 0 40 40" fill="none" xmlns="http://www.w3.org/2000/svg">
<g clip-path="url(#clip0_22_28)">
<path d="M11.2549 22.5C12.2494 22.5 13.2033 22.1049 13.9065 21.4017C14.6098 20.6984 15.0049 19.7446 15.0049 18.75C15.0049 17.7554 14.6098 16.8016 13.9065 16.0983C13.2033 15.3951 12.2494 15 11.2549 15C10.2603 15 9.30649 15.3951 8.60323 16.0983C7.89997 16.8016 7.50488 17.7554 7.50488 18.75C7.50488 19.7446 7.89997 20.6984 8.60323 21.4017C9.30649 22.1049 10.2603 22.5 11.2549 22.5Z" fill="white"/>
<path d="M35.0049 32.5C35.0049 33.8261 34.4781 35.0979 33.5404 36.0355C32.6027 36.9732 31.331 37.5 30.0049 37.5H5.00488C3.6788 37.5 2.40703 36.9732 1.46935 36.0355C0.531667 35.0979 0.00488281 33.8261 0.00488281 32.5V12.5C0.00488215 11.1748 0.53098 9.90377 1.46758 8.96623C2.40418 8.02869 3.67467 7.50133 4.99988 7.5C4.99988 6.17392 5.52667 4.90215 6.46435 3.96447C7.40203 3.02678 8.6738 2.5 9.99988 2.5H34.9999C36.326 2.5 37.5977 3.02678 38.5354 3.96447C39.4731 4.90215 39.9999 6.17392 39.9999 7.5V27.5C39.9999 28.8252 39.4738 30.0962 38.5372 31.0338C37.6006 31.9713 36.3301 32.4987 35.0049 32.5ZM34.9999 5H9.99988C9.33684 5 8.70096 5.26339 8.23212 5.73223C7.76328 6.20107 7.49988 6.83696 7.49988 7.5H30.0049C31.331 7.5 32.6027 8.02678 33.5404 8.96447C34.4781 9.90215 35.0049 11.1739 35.0049 12.5V30C35.6671 29.9987 36.3017 29.7347 36.7694 29.266C37.2372 28.7973 37.4999 28.1622 37.4999 27.5V7.5C37.4999 6.83696 37.2365 6.20107 36.7677 5.73223C36.2988 5.26339 35.6629 5 34.9999 5ZM5.00488 10C4.34184 10 3.70596 10.2634 3.23712 10.7322C2.76828 11.2011 2.50488 11.837 2.50488 12.5V32.5L9.11988 26.615C9.32422 26.4114 9.59267 26.2848 9.87973 26.2565C10.1668 26.2283 10.4548 26.3001 10.6949 26.46L17.3449 30.8925L26.6199 21.6175C26.8053 21.4319 27.0443 21.3094 27.3032 21.2672C27.5621 21.225 27.8277 21.2654 28.0624 21.3825L32.5049 26.25V12.5C32.5049 11.837 32.2415 11.2011 31.7727 10.7322C31.3038 10.2634 30.6679 10 30.0049 10H5.00488Z" fill="white"/>
</g>
<defs>
<clipPath id="clip0_22_28">
<rect width="40" height="40" fill="white"/>
</clipPath>
</defs>
</svg>
