<svg width="40" height="40" viewBox="0 0 40 40" fill="none" xmlns="http://www.w3.org/2000/svg">
<path d="M24.5699 1.80506C24.7342 1.80476 24.8969 1.83685 25.0487 1.89948C25.2006 1.96211 25.3386 2.05405 25.4549 2.17006L37.8299 14.5451C38.0642 14.7795 38.1959 15.0974 38.1959 15.4288C38.1959 15.7603 38.0642 16.0781 37.8299 16.3126C36.6299 17.5126 35.1499 17.7826 34.0724 17.7826C33.6299 17.7826 33.2349 17.7376 32.9224 17.6851L25.0874 25.5201C25.2936 26.3511 25.4275 27.1984 25.4874 28.0526C25.6024 29.8076 25.4074 32.2701 23.6874 33.9901C23.453 34.2244 23.1351 34.356 22.8036 34.356C22.4722 34.356 22.1543 34.2244 21.9199 33.9901L14.8474 26.9201L6.89239 34.8751C6.40489 35.3626 3.84489 37.1301 3.35739 36.6426C2.86989 36.1551 4.63739 33.5926 5.12489 33.1076L13.0799 25.1526L6.00989 18.0801C5.77555 17.8456 5.64391 17.5278 5.64391 17.1963C5.64391 16.8649 5.77555 16.547 6.00989 16.3126C7.72989 14.5926 10.1924 14.3951 11.9474 14.5126C12.8015 14.5724 13.6489 14.7062 14.4799 14.9126L22.3149 7.08006C22.2495 6.69935 22.216 6.31384 22.2149 5.92756C22.2149 4.85256 22.4849 3.37256 23.6874 2.17006C23.9217 1.93638 24.239 1.80513 24.5699 1.80506ZM24.8749 7.08506V7.08006V7.08506ZM24.8749 7.08006V7.08506C24.9471 7.30498 24.9568 7.54063 24.903 7.76575C24.8491 7.99087 24.7338 8.19661 24.5699 8.36006L15.7324 17.1951C15.5682 17.3586 15.3618 17.4732 15.1362 17.5262C14.9106 17.5792 14.6747 17.5684 14.4549 17.4951H14.4499L14.4149 17.4851C14.177 17.4138 13.9369 17.3504 13.6949 17.2951C13.066 17.1484 12.4265 17.0514 11.7824 17.0051C10.7274 16.9351 9.69239 17.0251 8.84489 17.3801L22.6199 31.1526C22.9724 30.3026 23.0624 29.2701 22.9924 28.2151C22.9287 27.3219 22.7678 26.4383 22.5124 25.5801L22.5024 25.5476V25.5451C22.4286 25.3249 22.4175 25.0885 22.4705 24.8624C22.5235 24.6363 22.6384 24.4295 22.8024 24.2651L31.6424 15.4276C31.8126 15.2563 32.0288 15.138 32.2648 15.087C32.5009 15.036 32.7466 15.0544 32.9724 15.1401L33.2124 15.1951C33.4299 15.2376 33.7324 15.2801 34.0724 15.2801C34.3574 15.2801 34.6474 15.2526 34.9299 15.1801L24.8174 5.07006C24.7449 5.35256 24.7174 5.64506 24.7174 5.92756C24.7186 6.31601 24.7707 6.70264 24.8724 7.07756L24.8749 7.08006Z" fill="white"/>
</svg>
