<svg width="40" height="40" viewBox="0 0 40 40" fill="none" xmlns="http://www.w3.org/2000/svg">
<g clip-path="url(#clip0_18_34)">
<path d="M3.75005 6.25C3.75005 5.25544 4.14514 4.30161 4.8484 3.59835C5.55166 2.89509 6.50549 2.5 7.50005 2.5H32.5C33.4946 2.5 34.4484 2.89509 35.1517 3.59835C35.855 4.30161 36.25 5.25544 36.25 6.25V15.1575C37.3245 15.4337 38.2765 16.0595 38.9563 16.9361C39.6361 17.8128 40.005 18.8906 40.005 20C40.005 21.1094 39.6361 22.1872 38.9563 23.0639C38.2765 23.9405 37.3245 24.5663 36.25 24.8425V33.75C36.25 34.7446 35.855 35.6984 35.1517 36.4016C34.4484 37.1049 33.4946 37.5 32.5 37.5H7.50005C6.50549 37.5 5.55166 37.1049 4.8484 36.4016C4.14514 35.6984 3.75005 34.7446 3.75005 33.75V24.8425C2.67564 24.5663 1.72361 23.9405 1.04383 23.0639C0.364047 22.1872 -0.00488281 21.1094 -0.00488281 20C-0.00488281 18.8906 0.364047 17.8128 1.04383 16.9361C1.72361 16.0595 2.67564 15.4337 3.75005 15.1575V6.25ZM6.25005 15.1575C7.32446 15.4337 8.27649 16.0595 8.95627 16.9361C9.63605 17.8128 10.005 18.8906 10.005 20C10.005 21.1094 9.63605 22.1872 8.95627 23.0639C8.27649 23.9405 7.32446 24.5663 6.25005 24.8425V33.75C6.25005 34.0815 6.38175 34.3995 6.61617 34.6339C6.85059 34.8683 7.16853 35 7.50005 35H32.5C32.8316 35 33.1495 34.8683 33.3839 34.6339C33.6184 34.3995 33.75 34.0815 33.75 33.75V24.8425C32.6756 24.5663 31.7236 23.9405 31.0438 23.0639C30.364 22.1872 29.9951 21.1094 29.9951 20C29.9951 18.8906 30.364 17.8128 31.0438 16.9361C31.7236 16.0595 32.6756 15.4337 33.75 15.1575V6.25C33.75 5.91848 33.6184 5.60054 33.3839 5.36612C33.1495 5.1317 32.8316 5 32.5 5H7.50005C7.16853 5 6.85059 5.1317 6.61617 5.36612C6.38175 5.60054 6.25005 5.91848 6.25005 6.25V15.1575ZM5.00005 17.5C4.33701 17.5 3.70112 17.7634 3.23228 18.2322C2.76344 18.7011 2.50005 19.337 2.50005 20C2.50005 20.663 2.76344 21.2989 3.23228 21.7678C3.70112 22.2366 4.33701 22.5 5.00005 22.5C5.66309 22.5 6.29898 22.2366 6.76782 21.7678C7.23666 21.2989 7.50005 20.663 7.50005 20C7.50005 19.337 7.23666 18.7011 6.76782 18.2322C6.29898 17.7634 5.66309 17.5 5.00005 17.5ZM35 17.5C34.337 17.5 33.7011 17.7634 33.2323 18.2322C32.7634 18.7011 32.5 19.337 32.5 20C32.5 20.663 32.7634 21.2989 33.2323 21.7678C33.7011 22.2366 34.337 22.5 35 22.5C35.6631 22.5 36.299 22.2366 36.7678 21.7678C37.2367 21.2989 37.5 20.663 37.5 20C37.5 19.337 37.2367 18.7011 36.7678 18.2322C36.299 17.7634 35.6631 17.5 35 17.5Z" fill="white"/>
<path d="M28.585 10H11.415L11.25 14.985H12.215C12.74 11.855 13.745 11.37 17.6475 11.2475L18.505 11.22V27.0775C18.505 28.42 18.215 28.74 15.8825 28.9475V30H24.1175V28.9475C21.7725 28.74 21.4825 28.4225 21.4825 27.0775V11.22L22.3525 11.245C26.2525 11.37 27.26 11.855 27.785 14.985H28.75L28.585 10Z" fill="white"/>
</g>
<defs>
<clipPath id="clip0_18_34">
<rect width="40" height="40" fill="white"/>
</clipPath>
</defs>
</svg>
